<?xml version="1.0" standalone="no"?>
<!DOCTYPE svg PUBLIC "-//W3C//DTD SVG 20010904//EN"
 "http://www.w3.org/TR/2001/REC-SVG-20010904/DTD/svg10.dtd">
<svg version="1.0" xmlns="http://www.w3.org/2000/svg"
 width="1280.000000pt" height="1280.000000pt" viewBox="0 0 1280.000000 1280.000000"
 preserveAspectRatio="xMidYMid meet">
<metadata>
Created by potrace 1.15, written by Peter Selinger 2001-2017
</metadata>
<g transform="translate(0.000000,1280.000000) scale(0.100000,-0.100000)"
fill="#000000" stroke="none">
<path d="M4170 9954 c-394 -35 -686 -112 -996 -265 -366 -180 -686 -465 -878
-780 -143 -236 -230 -485 -271 -774 -19 -132 -19 -429 0 -580 66 -528 308
-1026 749 -1544 115 -136 446 -467 601 -602 340 -296 599 -497 1260 -979 751
-548 1016 -760 1286 -1029 184 -184 305 -334 381 -472 24 -43 45 -78 48 -78 3
0 26 35 53 79 75 126 162 235 302 379 269 276 554 502 1300 1026 626 440 881
626 1135 829 704 561 1128 1041 1390 1571 182 368 260 691 260 1080 0 392 -83
711 -265 1020 -391 666 -1188 1085 -2060 1085 -386 0 -728 -75 -1043 -230
-472 -232 -792 -588 -977 -1088 l-38 -103 -43 121 c-256 727 -858 1195 -1689
1316 -99 14 -419 26 -505 18z m755 -118 c271 -46 506 -138 720 -281 342 -228
573 -544 715 -974 l48 -144 26 86 c154 504 490 907 936 1121 755 363 1710 179
2302 -443 357 -374 538 -851 538 -1414 0 -440 -94 -816 -308 -1232 -173 -335
-404 -643 -737 -984 -346 -353 -596 -570 -1355 -1168 -902 -711 -1197 -999
-1411 -1382 l-47 -83 -35 68 c-55 109 -166 270 -274 400 -214 255 -515 527
-1208 1095 -376 308 -588 487 -755 637 -151 136 -475 459 -589 587 -523 588
-811 1162 -886 1765 -19 157 -20 450 -1 600 84 676 452 1217 1038 1529 218
116 498 202 753 231 111 12 422 4 530 -14z"/>
</g>
</svg>
